<?xml version="1.0" encoding="UTF-8"?>
<svg version="1.1" xmlns="http://www.w3.org/2000/svg" width="256" height="256">
<path d="M0 0 C3.21185218 0.63110078 6.0775043 0.77542222 9.33984375 0.65625 C9.33984375 1.31625 9.33984375 1.97625 9.33984375 2.65625 C10.43296875 2.841875 11.52609375 3.0275 12.65234375 3.21875 C19.03983388 4.81562253 26.33569955 8.47467108 29.90234375 14.13671875 C30.37671875 14.96816406 30.85109375 15.79960938 31.33984375 16.65625 C32.69807106 18.02787205 34.09696376 19.36004725 35.52734375 20.65625 C45.64589305 30.56091127 55.18475534 46.79338202 55.58984375 61.28125 C55.5178939 64.78880542 54.97086831 67.49613991 53.33984375 70.65625 C52.37949219 70.78902344 51.41914063 70.92179687 50.4296875 71.05859375 C45.90807958 71.70453774 41.40620723 72.46024277 36.90234375 73.21875 C36.07541016 73.35732422 35.24847656 73.49589844 34.39648438 73.63867188 C32.37747886 73.97711789 30.35864353 74.31657893 28.33984375 74.65625 C28.33984375 75.31625 28.33984375 75.97625 28.33984375 76.65625 C24.7356949 76.68578103 21.13157799 76.70322407 17.52734375 76.71875 C16.52251953 76.72712891 15.51769531 76.73550781 14.48242188 76.74414062 C7.71115551 76.76591319 1.07073449 76.3932331 -5.66015625 75.65625 C-5.68988525 74.31663208 -5.68988525 74.31663208 -5.72021484 72.94995117 C-5.79834323 69.63424292 -5.88503596 66.31898838 -5.97753906 63.00366211 C-6.01580491 61.56917932 -6.05066206 60.13460135 -6.08203125 58.69995117 C-6.12773487 56.63686122 -6.18571818 54.57442505 -6.24609375 52.51171875 C-6.27751465 51.27059326 -6.30893555 50.02946777 -6.34130859 48.75073242 C-6.43414834 45.48988899 -6.43414834 45.48988899 -8.66015625 42.65625 C-9.98015625 42.65625 -11.30015625 42.65625 -12.66015625 42.65625 C-12.66015625 54.86625 -12.66015625 67.07625 -12.66015625 79.65625 C-8.91420828 80.28057466 -5.81569095 80.78325381 -2.12353516 80.86157227 C-1.28311676 80.88151749 -0.44269836 80.90146271 0.42318726 80.92201233 C1.31091827 80.93872482 2.19864929 80.95543732 3.11328125 80.97265625 C4.49889755 81.0038279 4.49889755 81.0038279 5.9125061 81.03562927 C8.84654719 81.10071119 11.78067337 81.15981643 14.71484375 81.21875 C16.7109461 81.2619746 18.70704002 81.30559012 20.703125 81.34960938 C25.58194531 81.4563499 30.46085074 81.55773248 35.33984375 81.65625 C35.33984375 82.31625 35.33984375 82.97625 35.33984375 83.65625 C36.09910156 83.67042969 36.85835937 83.68460937 37.640625 83.69921875 C40.61430134 83.84192436 43.42174155 84.05966022 46.33984375 84.65625 C48.33984375 86.96875 48.33984375 86.96875 49.33984375 89.65625 C50.11134766 90.57083984 50.11134766 90.57083984 50.8984375 91.50390625 C53.77871317 95.80480569 52.25713641 100.81584691 51.33984375 105.65625 C41.52863607 144.46418281 15.55171124 178.10113681 -8.63671875 209.140625 C-9.85871495 210.80387926 -9.85871495 210.80387926 -10.66015625 213.65625 C-11.55734375 214.089375 -11.55734375 214.089375 -12.47265625 214.53125 C-14.90165777 215.58834535 -14.90165777 215.58834535 -16.72265625 218.28125 C-17.68171875 219.456875 -17.68171875 219.456875 -18.66015625 220.65625 C-19.65015625 220.65625 -20.64015625 220.65625 -21.66015625 220.65625 C-22.2802873 219.41598791 -22.88395651 218.16716455 -23.4609375 216.90625 C-25.01995521 213.98118746 -26.91133887 211.33790206 -28.84765625 208.65625 C-29.27401367 208.06102539 -29.70037109 207.46580078 -30.13964844 206.85253906 C-32.8601434 203.07821026 -35.63665094 199.34977885 -38.4453125 195.640625 C-39.10055908 194.774375 -39.75580566 193.908125 -40.4309082 193.015625 C-41.71761795 191.31926953 -43.00888234 189.62635586 -44.30541992 187.9375 C-48.072616 182.97658335 -51.37314878 177.94477614 -54.40722656 172.50097656 C-54.82069336 171.8922168 -55.23416016 171.28345703 -55.66015625 170.65625 C-56.32015625 170.65625 -56.98015625 170.65625 -57.66015625 170.65625 C-57.77230469 169.93308594 -57.88445312 169.20992187 -58 168.46484375 C-58.69296806 165.5166542 -59.75837213 163.35946751 -61.22265625 160.71875 C-63.23839537 156.84366532 -64.24596693 154.10841114 -63.66015625 149.65625 C-60.03015625 149.32625 -56.40015625 148.99625 -52.66015625 148.65625 C-52.66015625 147.99625 -52.66015625 147.33625 -52.66015625 146.65625 C-43.09015625 146.65625 -33.52015625 146.65625 -23.66015625 146.65625 C-21.94648568 150.08359115 -21.40658572 151.23480174 -21.24609375 154.765625 C-21.20742187 155.51972656 -21.16875 156.27382812 -21.12890625 157.05078125 C-21.09796875 157.82808594 -21.06703125 158.60539063 -21.03515625 159.40625 C-20.99648437 160.19902344 -20.9578125 160.99179688 -20.91796875 161.80859375 C-20.82404825 163.75744416 -20.74102803 165.70681451 -20.66015625 167.65625 C-20.00015625 167.65625 -19.34015625 167.65625 -18.66015625 167.65625 C-18.33015625 168.31625 -18.00015625 168.97625 -17.66015625 169.65625 C-17.00015625 169.65625 -16.34015625 169.65625 -15.66015625 169.65625 C-15.66015625 160.08625 -15.66015625 150.51625 -15.66015625 140.65625 C-20.28015625 140.32625 -24.90015625 139.99625 -29.66015625 139.65625 C-29.99015625 139.32625 -30.32015625 138.99625 -30.66015625 138.65625 C-33.65487728 138.60470246 -36.6275533 138.61461723 -39.62109375 138.6640625 C-41.47265074 138.68158173 -43.3242136 138.69848973 -45.17578125 138.71484375 C-48.10791042 138.74581695 -51.03975041 138.78132257 -53.97167969 138.82763672 C-56.79235484 138.86991359 -59.61268869 138.89340263 -62.43359375 138.9140625 C-63.75089981 138.94199387 -63.75089981 138.94199387 -65.09481812 138.9704895 C-65.91221466 138.97394379 -66.72961121 138.97739807 -67.57177734 138.98095703 C-68.64980118 138.99547409 -68.64980118 138.99547409 -69.74960327 139.01028442 C-72.93524445 138.41997018 -74.22601789 136.23628731 -76.08984375 133.74609375 C-91.1424227 111.32995592 -97.61623778 82.85397456 -94.19921875 56.0390625 C-92.32821194 47.74059701 -88.44916465 40.22191038 -84.03515625 32.99609375 C-82.53616954 30.63096609 -82.53616954 30.63096609 -81.66015625 27.65625 C-80.32960062 26.98405662 -78.99594051 26.31799211 -77.66015625 25.65625 C-76.08378975 23.89414371 -76.08378975 23.89414371 -74.72265625 21.84375 C-70.44514385 15.89617608 -65.9572269 10.41761188 -58.66015625 8.65625 C-58.33015625 7.99625 -58.00015625 7.33625 -57.66015625 6.65625 C-57.04140625 6.511875 -56.42265625 6.3675 -55.78515625 6.21875 C-53.60031386 5.86189787 -53.60031386 5.86189787 -52.5078125 4.25390625 C-49.72763209 1.84990247 -46.47180169 1.33454326 -42.97265625 0.53125 C-41.94881836 0.27794922 -41.94881836 0.27794922 -40.90429688 0.01953125 C-27.12497996 -3.28542295 -13.72795164 -3.21958475 0 0 Z M-13.66015625 140.65625 C-13.66015625 150.22625 -13.66015625 159.79625 -13.66015625 169.65625 C-13.33015625 169.65625 -13.00015625 169.65625 -12.66015625 169.65625 C-12.66015625 160.08625 -12.66015625 150.51625 -12.66015625 140.65625 C-12.99015625 140.65625 -13.32015625 140.65625 -13.66015625 140.65625 Z M-14.66015625 169.65625 C-13.66015625 171.65625 -13.66015625 171.65625 -13.66015625 171.65625 Z " fill="#EF851C" transform="translate(141.66015625,21.34375)"/>
<path d="M0 0 C0.33 0 0.66 0 1 0 C1 12.21 1 24.42 1 37 C0.67 37 0.34 37 0 37 C0 24.79 0 12.58 0 0 Z " fill="#DB8724" transform="translate(129,64)"/>
<path d="M0 0 C11.88 0 23.76 0 36 0 C36 0.33 36 0.66 36 1 C24.12 1 12.24 1 0 1 C0 0.67 0 0.34 0 0 Z " fill="#DF8926" transform="translate(75,161)"/>
<path d="M0 0 C1.65 0.33 3.3 0.66 5 1 C1.777893 4.8665284 -1.14922412 5.88059018 -6 7 C-5.67 5.68 -5.34 4.36 -5 3 C-4.360625 2.87625 -3.72125 2.7525 -3.0625 2.625 C-2.0415625 2.315625 -2.0415625 2.315625 -1 2 C-0.67 1.34 -0.34 0.68 0 0 Z " fill="#EE9619" transform="translate(89,25)"/>
<path d="M0 0 C0.33 0 0.66 0 1 0 C1 9.24 1 18.48 1 28 C0.67 28 0.34 28 0 28 C0 18.76 0 9.52 0 0 Z " fill="#DF9829" transform="translate(134,67)"/>
<path d="M0 0 C0.33 0 0.66 0 1 0 C1 6.93 1 13.86 1 21 C0.67 21 0.34 21 0 21 C0 14.07 0 7.14 0 0 Z " fill="#EA7E10" transform="translate(45,81)"/>
<path d="M0 0 C2.64 0 5.28 0 8 0 C7.01 0.33 6.02 0.66 5 1 C5 2.32 5 3.64 5 5 C4.34 5 3.68 5 3 5 C1.375 2.5 1.375 2.5 0 0 Z " fill="#E48416" transform="translate(115,19)"/>
<path d="M0 0 C0.33 0 0.66 0 1 0 C1 5.61 1 11.22 1 17 C0.67 17 0.34 17 0 17 C0 11.39 0 5.78 0 0 Z " fill="#E59F2F" transform="translate(121,172)"/>
<path d="M0 0 C5.28 0 10.56 0 16 0 C16 0.33 16 0.66 16 1 C10.72 1 5.44 1 0 1 C0 0.67 0 0.34 0 0 Z " fill="#EA8512" transform="translate(115,17)"/>
<path d="M0 0 C0.33 0 0.66 0 1 0 C1 2.97 1 5.94 1 9 C0.67 9 0.34 9 0 9 C0 6.03 0 3.06 0 0 Z " fill="#E58C0F" transform="translate(198,78)"/>
<path d="M0 0 C0.33 0 0.66 0 1 0 C1 2.31 1 4.62 1 7 C0.67 7 0.34 7 0 7 C0 4.69 0 2.38 0 0 Z " fill="#D15E23" transform="translate(46,102)"/>
<path d="M0 0 C2.31 0 4.62 0 7 0 C7 0.33 7 0.66 7 1 C4.69 1 2.38 1 0 1 C0 0.67 0 0.34 0 0 Z " fill="#E69119" transform="translate(171,96)"/>
<path d="M0 0 C0.33 0 0.66 0 1 0 C1 1.98 1 3.96 1 6 C0.67 6 0.34 6 0 6 C0 4.02 0 2.04 0 0 Z " fill="#EB7A10" transform="translate(194,121)"/>
<path d="M0 0 C1.98 0 3.96 0 6 0 C6 0.33 6 0.66 6 1 C4.02 1 2.04 1 0 1 C0 0.67 0 0.34 0 0 Z " fill="#DB8D2E" transform="translate(108,18)"/>
<path d="M0 0 C0.33 0 0.66 0 1 0 C1 1.65 1 3.3 1 5 C0.67 5 0.34 5 0 5 C0 3.35 0 1.7 0 0 Z " fill="#D08729" transform="translate(195,115)"/>
<path d="M0 0 C0.33 0 0.66 0 1 0 C1 1.65 1 3.3 1 5 C0.67 5 0.34 5 0 5 C0 3.35 0 1.7 0 0 Z " fill="#E66707" transform="translate(47,110)"/>
<path d="M0 0 C0.99 0.33 1.98 0.66 3 1 C2.67 1.66 2.34 2.32 2 3 C1.34 2.01 0.68 1.02 0 0 Z " fill="#D85609" transform="translate(189,108)"/>
<path d="M0 0 C1.65 0 3.3 0 5 0 C5 0.33 5 0.66 5 1 C3.35 1 1.7 1 0 1 C0 0.67 0 0.34 0 0 Z " fill="#D48223" transform="translate(178,104)"/>
<path d="M0 0 C1.65 0 3.3 0 5 0 C5 0.33 5 0.66 5 1 C3.35 1 1.7 1 0 1 C0 0.67 0 0.34 0 0 Z " fill="#EF9A24" transform="translate(178,95)"/>
<path d="M0 0 C1.65 0 3.3 0 5 0 C5 0.33 5 0.66 5 1 C3.35 1 1.7 1 0 1 C0 0.67 0 0.34 0 0 Z " fill="#E99618" transform="translate(183,94)"/>
<path d="M0 0 C0.33 0 0.66 0 1 0 C1 1.65 1 3.3 1 5 C0.67 5 0.34 5 0 5 C0 3.35 0 1.7 0 0 Z " fill="#D37D25" transform="translate(46,75)"/>
<path d="M0 0 C1.65 0 3.3 0 5 0 C5 0.33 5 0.66 5 1 C3.35 1 1.7 1 0 1 C0 0.67 0 0.34 0 0 Z " fill="#ED4D0B" transform="translate(136,19)"/>
<path d="M0 0 C1 4 1 4 1 4 Z " fill="#D8691F" transform="translate(76,173)"/>
<path d="M0 0 C4 1 4 1 4 1 Z " fill="#F79023" transform="translate(84,169)"/>
<path d="M0 0 C1 4 1 4 1 4 Z " fill="#F09E3D" transform="translate(193,127)"/>
<path d="M0 0 C1 4 1 4 1 4 Z " fill="#DA8A21" transform="translate(50,123)"/>
<path d="M0 0 C1 4 1 4 1 4 Z " fill="#EA9026" transform="translate(48,115)"/>
<path d="M0 0 C0 3 0 3 0 3 Z " fill="#E29B23" transform="translate(65,43)"/>
<path d="M0 0 C4 1 4 1 4 1 Z " fill="#BD6419" transform="translate(141,20)"/>
<path d="M0 0 C4 1 4 1 4 1 Z " fill="#E6700D" transform="translate(103,19)"/>
<path d="M0 0 C4 1 4 1 4 1 Z " fill="#DE7B26" transform="translate(131,18)"/>
<path d="M0 0 C3 1 3 1 3 1 Z " fill="#E19A43" transform="translate(80,170)"/>
<path d="M0 0 C3 1 3 1 3 1 Z " fill="#EE9D16" transform="translate(72,160)"/>
<path d="" fill="#DE7508" transform="translate(0,0)"/>
<path d="" fill="#DC9D2B" transform="translate(0,0)"/>
<path d="" fill="#ECB038" transform="translate(0,0)"/>
<path d="" fill="#E8AF19" transform="translate(0,0)"/>
<path d="" fill="#CB6B1E" transform="translate(0,0)"/>
<path d="" fill="#E56112" transform="translate(0,0)"/>
<path d="" fill="#E4B412" transform="translate(0,0)"/>
<path d="M0 0 C3 1 3 1 3 1 Z " fill="#F0B13E" transform="translate(183,105)"/>
<path d="M0 0 C3 1 3 1 3 1 Z " fill="#E2891D" transform="translate(188,93)"/>
<path d="" fill="#ECBF31" transform="translate(0,0)"/>
<path d="" fill="#FFB22C" transform="translate(0,0)"/>
<path d="" fill="#9C5C0D" transform="translate(0,0)"/>
<path d="" fill="#EDB131" transform="translate(0,0)"/>
<path d="" fill="#E08F22" transform="translate(0,0)"/>
<path d="" fill="#E64203" transform="translate(0,0)"/>
<path d="M0 0 C3 1 3 1 3 1 Z " fill="#D8841D" transform="translate(145,21)"/>
<path d="M0 0 C3 1 3 1 3 1 Z " fill="#F5C224" transform="translate(97,21)"/>
<path d="M0 0 C3 1 3 1 3 1 Z " fill="#EE8526" transform="translate(100,20)"/>
<path d="" fill="#FDC03A" transform="translate(0,0)"/>
<path d="" fill="#A7552A" transform="translate(0,0)"/>
<path d="" fill="#EB931E" transform="translate(0,0)"/>
<path d="" fill="#DFAB2D" transform="translate(0,0)"/>
<path d="" fill="#EFC612" transform="translate(0,0)"/>
<path d="" fill="#D04110" transform="translate(0,0)"/>
<path d="" fill="#F8B82C" transform="translate(0,0)"/>
<path d="" fill="#E28C15" transform="translate(0,0)"/>
<path d="" fill="#D1A317" transform="translate(0,0)"/>
<path d="" fill="#FBBE11" transform="translate(0,0)"/>
<path d="" fill="#E58F28" transform="translate(0,0)"/>
<path d="" fill="#F28C17" transform="translate(0,0)"/>
<path d="" fill="#FA7E0F" transform="translate(0,0)"/>
<path d="" fill="#CD4A0E" transform="translate(0,0)"/>
<path d="" fill="#FDC03B" transform="translate(0,0)"/>
<path d="" fill="#CC6C1C" transform="translate(0,0)"/>
<path d="" fill="#E1802C" transform="translate(0,0)"/>
<path d="" fill="#CA671D" transform="translate(0,0)"/>
<path d="" fill="#CD7019" transform="translate(0,0)"/>
<path d="" fill="#D35604" transform="translate(0,0)"/>
<path d="" fill="#E7590D" transform="translate(0,0)"/>
<path d="" fill="#D69F41" transform="translate(0,0)"/>
<path d="" fill="#CF7317" transform="translate(0,0)"/>
<path d="" fill="#E9640B" transform="translate(0,0)"/>
<path d="" fill="#FABD51" transform="translate(0,0)"/>
<path d="" fill="#F18117" transform="translate(0,0)"/>
<path d="" fill="#D4670A" transform="translate(0,0)"/>
<path d="" fill="#A34A00" transform="translate(0,0)"/>
<path d="" fill="#EE601E" transform="translate(0,0)"/>
<path d="" fill="#CE680F" transform="translate(0,0)"/>
<path d="" fill="#F18D18" transform="translate(0,0)"/>
<path d="" fill="#E78911" transform="translate(0,0)"/>
<path d="" fill="#CB6A1A" transform="translate(0,0)"/>
<path d="" fill="#F38023" transform="translate(0,0)"/>
<path d="" fill="#CA470A" transform="translate(0,0)"/>
<path d="" fill="#A15428" transform="translate(0,0)"/>
<path d="" fill="#E19937" transform="translate(0,0)"/>
<path d="" fill="#F48015" transform="translate(0,0)"/>
<path d="" fill="#E19916" transform="translate(0,0)"/>
<path d="" fill="#EAB23A" transform="translate(0,0)"/>
<path d="" fill="#B85813" transform="translate(0,0)"/>
<path d="" fill="#CE6A19" transform="translate(0,0)"/>
<path d="" fill="#D25E1B" transform="translate(0,0)"/>
<path d="" fill="#FFC028" transform="translate(0,0)"/>
<path d="" fill="#E89B13" transform="translate(0,0)"/>
<path d="" fill="#DEB312" transform="translate(0,0)"/>
<path d="" fill="#D56924" transform="translate(0,0)"/>
<path d="" fill="#E6991B" transform="translate(0,0)"/>
<path d="" fill="#E4842D" transform="translate(0,0)"/>
<path d="" fill="#F29913" transform="translate(0,0)"/>
<path d="" fill="#D57901" transform="translate(0,0)"/>
<path d="" fill="#FFC11C" transform="translate(0,0)"/>
<path d="" fill="#CC7312" transform="translate(0,0)"/>
<path d="" fill="#D09423" transform="translate(0,0)"/>
<path d="" fill="#FD9603" transform="translate(0,0)"/>
<path d="" fill="#EB9820" transform="translate(0,0)"/>
<path d="" fill="#CF6B1F" transform="translate(0,0)"/>
<path d="" fill="#E8890D" transform="translate(0,0)"/>
<path d="" fill="#BB5602" transform="translate(0,0)"/>
<path d="" fill="#E8B42B" transform="translate(0,0)"/>
<path d="" fill="#C96922" transform="translate(0,0)"/>
<path d="" fill="#EB8013" transform="translate(0,0)"/>
<path d="" fill="#F4B232" transform="translate(0,0)"/>
<path d="" fill="#EDA63D" transform="translate(0,0)"/>
<path d="" fill="#F8C348" transform="translate(0,0)"/>
<path d="" fill="#B64902" transform="translate(0,0)"/>
<path d="" fill="#79330D" transform="translate(0,0)"/>
<path d="" fill="#CE600F" transform="translate(0,0)"/>
<path d="M0 0 C2 1 2 1 2 1 Z " fill="#EB9A1F" transform="translate(81,30)"/>
<path d="M0 0 C2 1 2 1 2 1 Z " fill="#F0B529" transform="translate(86,27)"/>
<path d="M0 0 C2 1 2 1 2 1 Z " fill="#D78612" transform="translate(153,24)"/>
<path d="M0 0 C2 1 2 1 2 1 Z " fill="#FFC829" transform="translate(151,23)"/>
<path d="M0 0 C2 1 2 1 2 1 Z " fill="#DB7F0F" transform="translate(95,22)"/>
<path d="" fill="#F87D2A" transform="translate(0,0)"/>
<path d="" fill="#EC850B" transform="translate(0,0)"/>
<path d="" fill="#CF2200" transform="translate(0,0)"/>
<path d="" fill="#F99E2F" transform="translate(0,0)"/>
<path d="" fill="#C86B00" transform="translate(0,0)"/>
<path d="" fill="#D17807" transform="translate(0,0)"/>
<path d="" fill="#FBAD36" transform="translate(0,0)"/>
<path d="" fill="#FDA419" transform="translate(0,0)"/>
<path d="" fill="#EFA32B" transform="translate(0,0)"/>
<path d="" fill="#9B5B00" transform="translate(0,0)"/>
<path d="" fill="#FF9E29" transform="translate(0,0)"/>
<path d="" fill="#FF8B0C" transform="translate(0,0)"/>
<path d="" fill="#C4801C" transform="translate(0,0)"/>
<path d="" fill="#C67B19" transform="translate(0,0)"/>
<path d="" fill="#FFA946" transform="translate(0,0)"/>
<path d="" fill="#EE9729" transform="translate(0,0)"/>
<path d="" fill="#CF6B07" transform="translate(0,0)"/>
<path d="" fill="#D48C0A" transform="translate(0,0)"/>
<path d="" fill="#FFA91A" transform="translate(0,0)"/>
<path d="" fill="#E6AA14" transform="translate(0,0)"/>
<path d="" fill="#FBAE12" transform="translate(0,0)"/>
<path d="" fill="#FE9D1C" transform="translate(0,0)"/>
<path d="" fill="#FF800D" transform="translate(0,0)"/>
<path d="" fill="#F2AD27" transform="translate(0,0)"/>
<path d="" fill="#F3B826" transform="translate(0,0)"/>
<path d="" fill="#F39C31" transform="translate(0,0)"/>
<path d="" fill="#FFAD15" transform="translate(0,0)"/>
<path d="" fill="#E9A410" transform="translate(0,0)"/>
<path d="" fill="#FEA415" transform="translate(0,0)"/>
<path d="" fill="#EFA427" transform="translate(0,0)"/>
<path d="" fill="#BA7521" transform="translate(0,0)"/>
<path d="" fill="#E08C27" transform="translate(0,0)"/>
<path d="" fill="#EDA225" transform="translate(0,0)"/>
<path d="" fill="#C77300" transform="translate(0,0)"/>
<path d="" fill="#FC941C" transform="translate(0,0)"/>
<path d="" fill="#FEA538" transform="translate(0,0)"/>
<path d="" fill="#FF910C" transform="translate(0,0)"/>
<path d="" fill="#DC6524" transform="translate(0,0)"/>
<path d="" fill="#FDAB31" transform="translate(0,0)"/>
<path d="" fill="#B14C17" transform="translate(0,0)"/>
<path d="" fill="#FF9D12" transform="translate(0,0)"/>
<path d="" fill="#FF9F0A" transform="translate(0,0)"/>
<path d="" fill="#EF9F2F" transform="translate(0,0)"/>
<path d="" fill="#ED953E" transform="translate(0,0)"/>
<path d="" fill="#DC8813" transform="translate(0,0)"/>
<path d="" fill="#FFA20B" transform="translate(0,0)"/>
<path d="" fill="#FF922D" transform="translate(0,0)"/>
<path d="" fill="#FD9C42" transform="translate(0,0)"/>
<path d="" fill="#F0A12A" transform="translate(0,0)"/>
<path d="" fill="#FF9734" transform="translate(0,0)"/>
<path d="" fill="#AC8215" transform="translate(0,0)"/>
<path d="" fill="#F5B02C" transform="translate(0,0)"/>
<path d="" fill="#FF8E3A" transform="translate(0,0)"/>
<path d="" fill="#FFA812" transform="translate(0,0)"/>
<path d="" fill="#CE6F0B" transform="translate(0,0)"/>
<path d="" fill="#F6AB2E" transform="translate(0,0)"/>
<path d="" fill="#FFA616" transform="translate(0,0)"/>
<path d="" fill="#F69E2C" transform="translate(0,0)"/>
<path d="" fill="#FFA10C" transform="translate(0,0)"/>
<path d="" fill="#F17100" transform="translate(0,0)"/>
<path d="" fill="#FFCE67" transform="translate(0,0)"/>
<path d="" fill="#FAA52C" transform="translate(0,0)"/>
<path d="" fill="#DCA755" transform="translate(0,0)"/>
<path d="" fill="#D29012" transform="translate(0,0)"/>
<path d="" fill="#D26012" transform="translate(0,0)"/>
<path d="" fill="#DE641B" transform="translate(0,0)"/>
<path d="" fill="#C5761F" transform="translate(0,0)"/>
<path d="" fill="#C34800" transform="translate(0,0)"/>
<path d="" fill="#FCB239" transform="translate(0,0)"/>
<path d="" fill="#EFA356" transform="translate(0,0)"/>
<path d="" fill="#FC9A1C" transform="translate(0,0)"/>
<path d="" fill="#F6820C" transform="translate(0,0)"/>
<path d="" fill="#FFD378" transform="translate(0,0)"/>
<path d="" fill="#FFA411" transform="translate(0,0)"/>
<path d="" fill="#E9AA24" transform="translate(0,0)"/>
<path d="" fill="#FCA407" transform="translate(0,0)"/>
<path d="" fill="#EC6000" transform="translate(0,0)"/>
<path d="" fill="#DF6F00" transform="translate(0,0)"/>
<path d="" fill="#C3942D" transform="translate(0,0)"/>
<path d="" fill="#F9A514" transform="translate(0,0)"/>
<path d="" fill="#D86719" transform="translate(0,0)"/>
<path d="" fill="#D28116" transform="translate(0,0)"/>
<path d="" fill="#F97E2F" transform="translate(0,0)"/>
<path d="" fill="#D28114" transform="translate(0,0)"/>
<path d="" fill="#FFAA41" transform="translate(0,0)"/>
<path d="" fill="#EA871B" transform="translate(0,0)"/>
<path d="" fill="#D07C16" transform="translate(0,0)"/>
<path d="" fill="#F1A238" transform="translate(0,0)"/>
<path d="" fill="#DB8D11" transform="translate(0,0)"/>
<path d="" fill="#E4A522" transform="translate(0,0)"/>
<path d="" fill="#FB7A14" transform="translate(0,0)"/>
<path d="" fill="#EEB02A" transform="translate(0,0)"/>
<path d="" fill="#F4821F" transform="translate(0,0)"/>
<path d="" fill="#FAA62A" transform="translate(0,0)"/>
<path d="" fill="#F98B15" transform="translate(0,0)"/>
<path d="" fill="#F7A228" transform="translate(0,0)"/>
<path d="" fill="#CE8517" transform="translate(0,0)"/>
<path d="" fill="#C37708" transform="translate(0,0)"/>
<path d="" fill="#D66A11" transform="translate(0,0)"/>
</svg>
