<?xml version="1.0" encoding="UTF-8"?>
<svg version="1.1" xmlns="http://www.w3.org/2000/svg" width="256" height="256">
<path d="M0 0 C84.48 0 168.96 0 256 0 C256 84.48 256 168.96 256 256 C171.52 256 87.04 256 0 256 C0 171.52 0 87.04 0 0 Z " fill="#E03743" transform="translate(0,0)"/>
<path d="M0 0 C0.33 2.64 0.66 5.28 1 8 C1.763125 7.05125 2.52625 6.1025 3.3125 5.125 C5.53239033 2.36513635 7.48783489 0.23559094 11.15625 -0.3359375 C17.51241535 -0.44187359 17.51241535 -0.44187359 20 1.8125 C21 4 21 4 22 7 C22.5775 6.21625 23.155 5.4325 23.75 4.625 C26.39802199 1.53564101 27.89002676 0.2781912 31.92578125 -0.25390625 C34.0625 -0.375 34.0625 -0.375 38 0 C40.28940202 2.18232531 40.96076325 3.4319201 41.1796875 6.6015625 C40.21778927 16.14655265 38.68460092 25.55987786 37 35 C33.04 35 29.08 35 25 35 C25.54278267 26.98529415 26.13505261 18.98696098 27 11 C23.18586714 12.63576828 21.67428773 14.49137367 19.8828125 18.29296875 C18.02424391 23.99203085 17.5881404 30.05668648 17 36 C12.71 36 8.42 36 4 36 C4.31212639 33.33328914 4.62469221 30.66663095 4.9375 28 C5.02451172 27.25621094 5.11152344 26.51242188 5.20117188 25.74609375 C5.77853831 20.82778708 6.38027284 15.91315228 7 11 C3.15724651 12.76558944 1.14949796 14.55763601 -0.375 18.55078125 C-1.82907411 24.24893419 -2.36148497 30.16322141 -3 36 C-7.29 36 -11.58 36 -16 36 C-15.54952108 30.29393372 -14.99783977 24.69955004 -14 19.0625 C-12.94635276 13.06300114 -12.40924391 7.07404126 -12 1 C-7.95858806 0.36605303 -4.0934693 -0.12404452 0 0 Z " fill="#FDF7F7" transform="translate(101,115)"/>
<path d="M0 0 C3.81638112 2.48508538 6.2299304 4.3772912 7.6875 8.75 C8.46733437 17.37931476 7.7895463 23.71515961 2.26171875 30.5 C-1.90058606 34.97420878 -5.55092517 36.79273199 -11.6875 37.125 C-16.38393372 36.98434142 -19.81934327 35.96261824 -23.3125 32.75 C-26.6809869 28.33508966 -28.0390177 23.64404246 -27.76171875 18.1171875 C-26.6385189 12.19841263 -23.82802967 6.71063636 -19.25 2.75 C-12.85781162 -1.60212826 -7.41954222 -2.79982725 0 0 Z " fill="#FDF7F7" transform="translate(232.3125,115.25)"/>
<path d="M0 0 C4.62124055 2.18900868 6.71196729 4.50171473 9 9 C10.22756782 16.23242039 9.15664623 22.50499585 5.56640625 28.8671875 C2.52418727 33.00946072 -1.10714707 35.36904902 -6 37 C-11.61875724 37.3684431 -15.15711379 37.19190228 -20 34 C-25.02601396 28.43063318 -25.40897772 24.72297679 -25.34375 17.3359375 C-24.69090761 11.00039882 -21.50316858 7.13081943 -16.8125 3.0625 C-11.45392299 -0.86712314 -6.51350132 -0.61303542 0 0 Z " fill="#FDF6F6" transform="translate(75,115)"/>
<path d="M0 0 C2.1640625 1.6015625 2.1640625 1.6015625 4.1640625 3.6015625 C4.36850281 6.2081764 4.44606803 8.68318341 4.4140625 11.2890625 C4.41019531 12.03986084 4.40632813 12.79065918 4.40234375 13.56420898 C4.28980762 21.01113087 3.36153595 28.25634588 2.1640625 35.6015625 C-1.4659375 35.6015625 -5.0959375 35.6015625 -8.8359375 35.6015625 C-9.1659375 34.2815625 -9.4959375 32.9615625 -9.8359375 31.6015625 C-10.4340625 32.0759375 -11.0321875 32.5503125 -11.6484375 33.0390625 C-15.66924863 35.91107045 -20.02183038 36.32950208 -24.8359375 35.6015625 C-27.26713373 33.73141156 -28.47662923 32.32017905 -29.8359375 29.6015625 C-30.32853081 24.67562943 -30.42475595 22.57679306 -27.8359375 18.2890625 C-23.64882246 13.96041117 -18.43339454 12.46020142 -12.5234375 12.3515625 C-8.8359375 12.6015625 -8.8359375 12.6015625 -5.8359375 13.6015625 C-6.18038631 11.12889485 -6.18038631 11.12889485 -6.8359375 8.6015625 C-9.40149892 7.31878179 -10.87522487 7.66522313 -13.7109375 7.9765625 C-14.57460937 8.06679687 -15.43828125 8.15703125 -16.328125 8.25 C-18.55954395 8.56281574 -20.66536508 9.00591704 -22.8359375 9.6015625 C-24.09258728 6.69555989 -24.8359375 4.80551666 -24.8359375 1.6015625 C-17.82731948 -2.50104317 -7.37550723 -3.63695811 0 0 Z " fill="#FDF5F6" transform="translate(172.8359375,115.3984375)"/>
<path d="M0 0 C9.57 0 19.14 0 29 0 C29 6.66876895 29 6.66876895 25.28515625 10.54882812 C24.77855469 11.04833984 24.27195312 11.54785156 23.75 12.0625 C22.764225 13.0728547 21.77982974 14.08455756 20.796875 15.09765625 C20.32314453 15.57992676 19.84941406 16.06219727 19.36132812 16.55908203 C17.43484425 18.59819749 15.71122949 20.77947602 14 23 C17.96 23.33 21.92 23.66 26 24 C25.46019653 27.39305036 24.83449189 30.66203244 24 34 C14.43 34 4.86 34 -5 34 C-5 27 -5 27 -3.94604492 25.16723633 C-3.46240479 24.72661865 -2.97876465 24.28600098 -2.48046875 23.83203125 C-1.95259766 23.33123047 -1.42472656 22.83042969 -0.88085938 22.31445312 C-0.32205078 21.81880859 0.23675781 21.32316406 0.8125 20.8125 C1.90437375 19.80036261 2.99427322 18.78609057 4.08203125 17.76953125 C4.56905518 17.33229736 5.0560791 16.89506348 5.55786133 16.44458008 C7.38463517 14.68240876 7.38463517 14.68240876 10 11 C6.37 10.67 2.74 10.34 -1 10 C-0.67 6.7 -0.34 3.4 0 0 Z " fill="#FDF7F6" transform="translate(21,116)"/>
<path d="M0 0 C-0.33 3.63 -0.66 7.26 -1 11 C1.64 11 4.28 11 7 11 C6.67 13.97 6.34 16.94 6 20 C3.03 20 0.06 20 -3 20 C-3.33 25.94 -3.66 31.88 -4 38 C-0.535 37.505 -0.535 37.505 3 37 C3.3125 40.3125 3.3125 40.3125 3 44 C-0.60917143 46.87018203 -3.5759592 47.45439558 -8.125 47.5 C-9.67574219 47.54640625 -9.67574219 47.54640625 -11.2578125 47.59375 C-14 47 -14 47 -15.8828125 44.96875 C-17.30626849 41.18613966 -17.13529551 37.94019179 -16.75 34 C-16.69714844 33.30132812 -16.64429688 32.60265625 -16.58984375 31.8828125 C-16.29065 28.19507558 -15.81752428 24.60838303 -15 21 C-15.99 21 -16.98 21 -18 21 C-18 18.03 -18 15.06 -18 12 C-16.35 11.67 -14.7 11.34 -13 11 C-12.814375 9.39125 -12.814375 9.39125 -12.625 7.75 C-11.85343564 4.88999075 -11.28102471 4.16389172 -8.67578125 2.64453125 C-1.98330325 0 -1.98330325 0 0 0 Z " fill="#FDF3F3" transform="translate(199,104)"/>
<path d="M0 0 C2.5625 1.6875 2.5625 1.6875 4 4 C3.88487669 8.25956231 1.73088868 12.16194248 0 16 C0.33 16.33 0.66 16.66 1 17 C1 18.65 1 20.3 1 22 C4.3 22 7.6 22 11 22 C11 22.33 11 22.66 11 23 C7.37 23 3.74 23 0 23 C-0.33 21.68 -0.66 20.36 -1 19 C-1.598125 19.474375 -2.19625 19.94875 -2.8125 20.4375 C-6.83331113 23.30950795 -11.18589288 23.72793958 -16 23 C-18.43119623 21.12984906 -19.64069173 19.71861655 -21 17 C-21.49259331 12.07406693 -21.58881845 9.97523056 -19 5.6875 C-13.89613351 0.41110844 -7.05881203 -0.82352807 0 0 Z " fill="#FDF0F0" transform="translate(164,128)"/>
<path d="M0 0 C-3 2 -3 2 -5 2 C-4.34 4.64 -3.68 7.28 -3 10 C-1.80375 9.505 -0.6075 9.01 0.625 8.5 C4.22622897 7.15511626 7.12086358 6.54893763 11 7 C11.99 7.66 12.98 8.32 14 9 C14.1875 11.625 14.1875 11.625 14 14 C13.29875 13.96519531 12.5975 13.93039063 11.875 13.89453125 C4.31571238 13.67884505 -1.5690681 13.99793459 -7.5 19.1875 C-9.59080218 23.10775409 -9.35656392 25.57860739 -9 30 C-8.67 30.99 -8.34 31.98 -8 33 C-10.33333333 33 -12.66666667 33 -15 33 C-14.86722656 31.99582031 -14.73445312 30.99164063 -14.59765625 29.95703125 C-14.41880253 28.57558138 -14.24045384 27.19406607 -14.0625 25.8125 C-13.9682373 25.09231689 -13.87397461 24.37213379 -13.77685547 23.63012695 C-13.05719866 17.9498445 -12.6971146 12.30001524 -12.5390625 6.57421875 C-12 4 -12 4 -10.1484375 2.20703125 C-6.64824227 0.24055793 -3.94641915 -0.10665998 0 0 Z " fill="#D9424D" transform="translate(153,115)"/>
<path d="M0 0 C1.65 1.32 3.3 2.64 5 4 C4.566875 4.81791016 4.566875 4.81791016 4.125 5.65234375 C0.69803287 12.61337074 -0.10676325 18.05715593 2 25.5625 C2.33 26.366875 2.66 27.17125 3 28 C2.34 28 1.68 28 1 28 C0.34 27.01 -0.32 26.02 -1 25 C-1.66 25.33 -2.32 25.66 -3 26 C-3 25.01 -3 24.02 -3 23 C-5.31 23.33 -7.62 23.66 -10 24 C-10.18451025 11.33029613 -10.18451025 11.33029613 -9 6 C-6.03 6 -3.06 6 0 6 C0 4.02 0 2.04 0 0 Z " fill="#DC3844" transform="translate(205,118)"/>
<path d="M0 0 C0.15490223 5.73138244 -0.34755115 10.89349206 -1.5 16.5 C-1.71462891 17.59054688 -1.71462891 17.59054688 -1.93359375 18.703125 C-2.28233698 20.47009071 -2.64019723 22.23525309 -3 24 C-5.31 23.67 -7.62 23.34 -10 23 C-9.31452095 7.28125622 -9.31452095 7.28125622 -4.5 1.0625 C-3 0 -3 0 0 0 Z " fill="#DB3A47" transform="translate(108,126)"/>
<path d="M0 0 C0.33 0 0.66 0 1 0 C1 1.65 1 3.3 1 5 C2.32 5.33 3.64 5.66 5 6 C4.360625 6.928125 3.72125 7.85625 3.0625 8.8125 C0.27927068 13.59218004 0.1961176 18.57734837 0 24 C-0.66 22.68 -1.32 21.36 -2 20 C-2.66 21.32 -3.32 22.64 -4 24 C-7.96 24 -11.92 24 -16 24 C-13.57338408 19.95564013 -11.79596876 17.59613673 -8.5 14.4375 C-3.64825487 9.77173844 -0.77815743 6.84778541 0 0 Z " fill="#D93D4C" transform="translate(50,116)"/>
<path d="M0 0 C1.32 0 2.64 0 4 0 C5.95635231 3.91270463 5.3696659 8.7241978 5 13 C3.5 16.1875 3.5 16.1875 2 18 C-2.875 17.125 -2.875 17.125 -4 16 C-4.62831088 10.26062175 -4.11752917 5.98804668 -1 1 C-0.67 0.67 -0.34 0.34 0 0 Z " fill="#D73E4C" transform="translate(66,124)"/>
<path d="M0 0 C3.875 0.875 3.875 0.875 5 2 C5.59251079 8.05044668 5.32241475 12.73950997 2 18 C0.35 18 -1.3 18 -3 18 C-4.96510837 14.06978326 -4.47530928 9.28395638 -4 5 C-2 1.8125 -2 1.8125 0 0 Z " fill="#D73C47" transform="translate(222,124)"/>
<path d="M0 0 C0.66 0 1.32 0 2 0 C1.67 1.98 1.34 3.96 1 6 C-0.32 6.33 -1.64 6.66 -3 7 C-3.33 9.97 -3.66 12.94 -4 16 C-3.01 16 -2.02 16 -1 16 C-1.0611499 16.91495239 -1.0611499 16.91495239 -1.12353516 17.84838867 C-1.30255845 20.62747442 -1.46393613 23.40731797 -1.625 26.1875 C-1.68945312 27.14720703 -1.75390625 28.10691406 -1.8203125 29.09570312 C-1.871875 30.02705078 -1.9234375 30.95839844 -1.9765625 31.91796875 C-2.02893066 32.77156982 -2.08129883 33.6251709 -2.13525391 34.50463867 C-1.9808852 37.35265773 -1.18311391 39.42178077 0 42 C-0.99 41.67 -1.98 41.34 -3 41 C-4.41634833 38.16730334 -4.3463005 35.52533562 -4.5625 32.375 C-4.64628906 31.18648437 -4.73007813 29.99796875 -4.81640625 28.7734375 C-4.90728516 27.40058594 -4.90728516 27.40058594 -5 26 C-5.99 25.67 -6.98 25.34 -8 25 C-8.05384521 22.70858714 -8.09272087 20.41681812 -8.125 18.125 C-8.14820313 16.84882812 -8.17140625 15.57265625 -8.1953125 14.2578125 C-8 11 -8 11 -6 9 C-6 7.68 -6 6.36 -6 5 C-4.02 5 -2.04 5 0 5 C0 3.35 0 1.7 0 0 Z " fill="#D1414E" transform="translate(185,109)"/>
<path d="M0 0 C-1.44604317 6.38669065 -1.44604317 6.38669065 -3.75 8.9375 C-6.68154725 10.32184176 -8.79624412 10.34823433 -12 10 C-12.66 9.34 -13.32 8.68 -14 8 C-13.9375 5.5625 -13.9375 5.5625 -13 3 C-8.89197217 -0.61008506 -5.18962044 -0.26387901 0 0 Z " fill="#D93944" transform="translate(166,134)"/>
<path d="M0 0 C0.99 0.33 1.98 0.66 3 1 C2.42085333 7.01326751 1.77662055 13.00892722 1 19 C0.67 19 0.34 19 0 19 C0 16.36 0 13.72 0 11 C-0.66 11 -1.32 11 -2 11 C-2 10.34 -2 9.68 -2 9 C-2.99 9.495 -2.99 9.495 -4 10 C-4.41755362 12.31974234 -4.7355646 14.65785793 -5 17 C-5.2644354 19.34214207 -5.58244638 21.68025766 -6 24 C-6.66 24.33 -7.32 24.66 -8 25 C-7.72417888 15.18076811 -7.49486917 7.08800485 0 0 Z " fill="#D64751" transform="translate(126,125)"/>
<path d="M0 0 C1.58323688 -0.027193 3.16661062 -0.04648306 4.75 -0.0625 C6.07257813 -0.07990234 6.07257813 -0.07990234 7.421875 -0.09765625 C9.7818838 -0.00826198 11.74498524 0.33087179 14 1 C14 1.66 14 2.32 14 3 C14.99 3 15.98 3 17 3 C18.80230168 6.82989106 19.19622241 9.78121808 19 14 C19.66 14 20.32 14 21 14 C22.54207746 18.11220656 21.74901256 21.77829286 21 26 C20.34 26.66 19.68 27.32 19 28 C16.875 27.625 16.875 27.625 15 27 C15.32226562 26.29746094 15.64453125 25.59492188 15.9765625 24.87109375 C17.83718337 19.65141307 18.1930356 13.21627639 16.2421875 7.95703125 C14.32419243 4.89881076 12.26992654 3.35062183 9 2 C6.64435404 1.55188863 6.64435404 1.55188863 4.25 1.375 C3.45078125 1.30023438 2.6515625 1.22546875 1.828125 1.1484375 C1.22484375 1.09945312 0.6215625 1.05046875 0 1 C0 0.67 0 0.34 0 0 Z " fill="#D54C56" transform="translate(66,114)"/>
<path d="M0 0 C0.33 0 0.66 0 1 0 C1.12375 0.969375 1.2475 1.93875 1.375 2.9375 C1.58125 3.948125 1.7875 4.95875 2 6 C2.66 6.33 3.32 6.66 4 7 C3.835 7.495 3.67 7.99 3.5 8.5 C2.58807341 13.05963297 2.51956112 17.55868337 4 22 C1.66666667 22 -0.66666667 22 -3 22 C-2.68905914 19.45813394 -2.37629464 16.91651402 -2.0625 14.375 C-1.97548828 13.66214844 -1.88847656 12.94929687 -1.79882812 12.21484375 C-1.29217395 8.12408039 -0.7110957 4.06157365 0 0 Z " fill="#D14857" transform="translate(141,126)"/>
<path d="M0 0 C0.08333357 4.8333472 -0.04738513 9.23692563 -1 14 C-1.66 14 -2.32 14 -3 14 C-4.35439668 11.29120665 -4.06501451 8.99066732 -4 6 C-4.66 6 -5.32 6 -6 6 C-6.33 9.3 -6.66 12.6 -7 16 C-7.66 16 -8.32 16 -9 16 C-8.78975138 6.32856328 -8.78975138 6.32856328 -5.625 2.375 C-3 0 -3 0 0 0 Z " fill="#D3414B" transform="translate(108,126)"/>
<path d="M0 0 C1.65 1.32 3.3 2.64 5 4 C3.68 6.64 2.36 9.28 1 12 C0.67 11.01 0.34 10.02 0 9 C-0.763125 8.855625 -1.52625 8.71125 -2.3125 8.5625 C-5 8 -5 8 -8 7 C-7.95875 8.11375 -7.9175 9.2275 -7.875 10.375 C-8 14 -8 14 -10 16 C-9.67 12.7 -9.34 9.4 -9 6 C-6.03 6 -3.06 6 0 6 C0 4.02 0 2.04 0 0 Z " fill="#D55763" transform="translate(205,118)"/>
<path d="M0 0 C1.65 0 3.3 0 5 0 C5 0.33 5 0.66 5 1 C6.65 1.33 8.3 1.66 10 2 C10.22174933 3.45635371 10.42698698 4.91522956 10.625 6.375 C10.74101563 7.18710938 10.85703125 7.99921875 10.9765625 8.8359375 C10.98429687 9.55007812 10.99203125 10.26421875 11 11 C10.34 11.66 9.68 12.32 9 13 C9 9.7 9 6.4 9 3 C8.319375 3.165 7.63875 3.33 6.9375 3.5 C3.5835178 4.07089059 0.39610195 4.06659023 -3 4 C-3 7.96 -3 11.92 -3 16 C-5.3638665 11.27226701 -5.25393971 9.16344069 -5 4 C-4 3 -4 3 -0.9375 2.9375 C0.5165625 2.9684375 0.5165625 2.9684375 2 3 C2 2.34 2 1.68 2 1 C1.34 0.67 0.68 0.34 0 0 Z " fill="#D35662" transform="translate(92,112)"/>
<path d="M0 0 C2 2 2 2 2 4 C1 6 1 6 -1.875 7.125 C-3.421875 7.558125 -3.421875 7.558125 -5 8 C-5.99 8.66 -6.98 9.32 -8 10 C-10.99609375 10.23046875 -10.99609375 10.23046875 -14.4375 10.1875 C-15.57058594 10.18105469 -16.70367187 10.17460937 -17.87109375 10.16796875 C-20.43568261 10.03029419 -22.56053624 9.74922106 -25 9 C-24.67 8.01 -24.34 7.02 -24 6 C-23.34 6.33 -22.68 6.66 -22 7 C-16.42877076 8.85707641 -11.94245177 8.7035988 -6.6875 6.25 C-3.70162765 4.6074769 -1.72385328 3.01674325 0 0 Z " fill="#C8444E" transform="translate(80,143)"/>
<path d="M0 0 C0.99 0 1.98 0 3 0 C2.34 5.94 1.68 11.88 1 18 C-3.29 18 -7.58 18 -12 18 C-12 16.02 -12 14.04 -12 12 C-11.67 12 -11.34 12 -11 12 C-11 13.65 -11 15.3 -11 17 C-7.37 17 -3.74 17 0 17 C-0.185625 16.154375 -0.37125 15.30875 -0.5625 14.4375 C-1.0376098 10.70449444 -0.61620573 7.69723439 0 4 C0 2.68 0 1.36 0 0 Z " fill="#FBBDC1" transform="translate(97,133)"/>
<path d="M0 0 C2.05164237 3.46214649 2 4.59389235 2 9 C5.3 9 8.6 9 12 9 C12 9.33 12 9.66 12 10 C8.37 10 4.74 10 1 10 C0.67 8.68 0.34 7.36 0 6 C-1.98 6.99 -1.98 6.99 -4 8 C-4 7.01 -4 6.02 -4 5 C-5.32 4.34 -6.64 3.68 -8 3 C-6.865625 2.690625 -5.73125 2.38125 -4.5625 2.0625 C-1.21224901 1.37075469 -1.21224901 1.37075469 0 0 Z " fill="#FCCDD2" transform="translate(163,141)"/>
<path d="M0 0 C0.33 0.99 0.66 1.98 1 3 C-0.9375 5.6875 -0.9375 5.6875 -3 8 C-1.68 8.33 -0.36 8.66 1 9 C-0.1446875 9.6496875 -0.1446875 9.6496875 -1.3125 10.3125 C-4.22485576 12.00203096 -4.22485576 12.00203096 -7 15 C-7 12.03 -7 9.06 -7 6 C-6.34 6 -5.68 6 -5 6 C-3.2856382 4.04072937 -1.61594832 2.04119788 0 0 Z " fill="#FBDBD8" transform="translate(107,117)"/>
<path d="M0 0 C0.33 0 0.66 0 1 0 C1 3.3 1 6.6 1 10 C1.66 10 2.32 10 3 10 C3 10.66 3 11.32 3 12 C2.01 12 1.02 12 0 12 C0 12.99 0 13.98 0 15 C3.63 15.33 7.26 15.66 11 16 C11 16.33 11 16.66 11 17 C6.71 17 2.42 17 -2 17 C-1.34 11.39 -0.68 5.78 0 0 Z " fill="#F9B8BF" transform="translate(107,134)"/>
<path d="M0 0 C0.66 0 1.32 0 2 0 C1.67 1.98 1.34 3.96 1 6 C-0.32 6.33 -1.64 6.66 -3 7 C-3.33 8.98 -3.66 10.96 -4 13 C-4.99 13 -5.98 13 -7 13 C-7 15.64 -7 18.28 -7 21 C-7.33 21 -7.66 21 -8 21 C-8.05395478 19.37536158 -8.09277195 17.75021459 -8.125 16.125 C-8.14820313 15.22007813 -8.17140625 14.31515625 -8.1953125 13.3828125 C-8 11 -8 11 -6 9 C-6 7.68 -6 6.36 -6 5 C-4.02 5 -2.04 5 0 5 C0 3.35 0 1.7 0 0 Z " fill="#CA454D" transform="translate(185,109)"/>
<path d="M0 0 C0.99 0.33 1.98 0.66 3 1 C2.42085333 7.01326751 1.77662055 13.00892722 1 19 C0.67 19 0.34 19 0 19 C0.03480469 18.01257813 0.06960937 17.02515625 0.10546875 16.0078125 C0.13253906 14.72648438 0.15960938 13.44515625 0.1875 12.125 C0.22230469 10.84882813 0.25710937 9.57265625 0.29296875 8.2578125 C0.19628906 7.18273437 0.09960938 6.10765625 0 5 C-0.99 4.34 -1.98 3.68 -3 3 C-2.01 2.01 -1.02 1.02 0 0 Z " fill="#CC4E5B" transform="translate(126,125)"/>
<path d="M0 0 C0.33 1.32 0.66 2.64 1 4 C1.66 4 2.32 4 3 4 C3.66 5.98 4.32 7.96 5 10 C4.34 10 3.68 10 3 10 C2.34 9.01 1.68 8.02 1 7 C0.01 7.495 0.01 7.495 -1 8 C-1 7.01 -1 6.02 -1 5 C-3.31 5.33 -5.62 5.66 -8 6 C-7.01 5.67 -6.02 5.34 -5 5 C-5 4.34 -5 3.68 -5 3 C-3.35 3 -1.7 3 0 3 C0 2.01 0 1.02 0 0 Z " fill="#D34D54" transform="translate(203,136)"/>
<path d="M0 0 C-1.485 2.475 -1.485 2.475 -3 5 C-1.68 5.33 -0.36 5.66 1 6 C-1.875 6.125 -1.875 6.125 -5 6 C-5.66 5.34 -6.32 4.68 -7 4 C-6.75 1.9375 -6.75 1.9375 -6 0 C-3.50907189 -1.24546405 -2.58919267 -0.7767578 0 0 Z " fill="#DC4153" transform="translate(159,138)"/>
<path d="M0 0 C0.66 0 1.32 0 2 0 C1.67 3.3 1.34 6.6 1 10 C4.96 10 8.92 10 13 10 C11.68 11.32 10.36 12.64 9 14 C9 13.01 9 12.02 9 11 C6.03 11 3.06 11 0 11 C0 7.37 0 3.74 0 0 Z " fill="#CB4750" transform="translate(19,116)"/>
<path d="M0 0 C1.65 0 3.3 0 5 0 C5.33 1.32 5.66 2.64 6 4 C2.37 4 -1.26 4 -5 4 C-4.67 3.34 -4.34 2.68 -4 2 C-2.68 2 -1.36 2 0 2 C0 1.34 0 0.68 0 0 Z " fill="#D43643" transform="translate(160,124)"/>
<path d="M0 0 C0.33 0 0.66 0 1 0 C1 1.98 1 3.96 1 6 C-3.29 6 -7.58 6 -12 6 C-12 5.67 -12 5.34 -12 5 C-11.30132812 4.80664062 -10.60265625 4.61328125 -9.8828125 4.4140625 C-8.97273437 4.15367187 -8.06265625 3.89328125 -7.125 3.625 C-6.22007812 3.36976563 -5.31515625 3.11453125 -4.3828125 2.8515625 C-1.85430274 2.1395685 -1.85430274 2.1395685 0 0 Z " fill="#D04A5A" transform="translate(163,146)"/>
<path d="M0 0 C0.33 0 0.66 0 1 0 C1.17835515 4.54805635 0.99785435 7.8794254 -1 12 C-3.5654594 9.4345406 -3.54046087 7.52313332 -4 4 C-2.68 4 -1.36 4 0 4 C0 2.68 0 1.36 0 0 Z " fill="#D03B42" transform="translate(85,138)"/>
<path d="M0 0 C0.99 0.33 1.98 0.66 3 1 C3 4.96 3 8.92 3 13 C2.01 13.33 1.02 13.66 0 14 C0 9.38 0 4.76 0 0 Z " fill="#F6CCCA" transform="translate(70,125)"/>
<path d="M0 0 C0.33 0 0.66 0 1 0 C1 1.65 1 3.3 1 5 C2.32 5.33 3.64 5.66 5 6 C3.68 7.65 2.36 9.3 1 11 C-0.32 10.01 -1.64 9.02 -3 8 C-2.34 7.34 -1.68 6.68 -1 6 C-0.60235737 4.01178687 -0.26224651 2.01055661 0 0 Z " fill="#D44751" transform="translate(50,116)"/>
<path d="M0 0 C2.13745922 0.25146579 3.45925779 0.45925779 5 2 C5.07205511 3.68608966 5.08386068 5.37500659 5.0625 7.0625 C5.05347656 7.98160156 5.04445312 8.90070313 5.03515625 9.84765625 C5.02355469 10.55792969 5.01195312 11.26820313 5 12 C4.67 12 4.34 12 4 12 C4 9.36 4 6.72 4 4 C1.50935112 3.31292445 -0.37886292 3 -3 3 C-1.75 1.4375 -1.75 1.4375 0 0 Z " fill="#CA4C54" transform="translate(222,124)"/>
<path d="M0 0 C0 3 0 3 -1 5 C-5.29 4.67 -9.58 4.34 -14 4 C-14 3.67 -14 3.34 -14 3 C-12.60974609 2.80083984 -12.60974609 2.80083984 -11.19140625 2.59765625 C-9.99386719 2.42105469 -8.79632813 2.24445313 -7.5625 2.0625 C-6.36753906 1.88847656 -5.17257813 1.71445313 -3.94140625 1.53515625 C-1.12044324 1.31014787 -1.12044324 1.31014787 0 0 Z " fill="#DA5E6B" transform="translate(201,148)"/>
<path d="M0 0 C0.33 0 0.66 0 1 0 C1.66 2.64 2.32 5.28 3 8 C0.66666667 8 -1.66666667 8 -4 8 C-3.67 6.68 -3.34 5.36 -3 4 C-2.34 4 -1.68 4 -1 4 C-0.67 2.68 -0.34 1.36 0 0 Z " fill="#D54F5F" transform="translate(142,140)"/>
<path d="M0 0 C0 3.63306931 -1.07932067 4.97123644 -3 8 C-3.68096422 9.32608822 -4.35330586 10.65686601 -5 12 C-5.3125 8.8125 -5.3125 8.8125 -5 5 C-2.5 2.0625 -2.5 2.0625 0 0 Z " fill="#FEE1E0" transform="translate(21,138)"/>
<path d="M0 0 C2.31 0 4.62 0 7 0 C8.20272819 2.40545638 8.10071472 3.94996953 8.0625 6.625 C8.05347656 7.44226563 8.04445312 8.25953125 8.03515625 9.1015625 C8.02355469 9.72804687 8.01195312 10.35453125 8 11 C7.67 11 7.34 11 7 11 C6.67 8.36 6.34 5.72 6 3 C3.50935112 2.31292445 1.62113708 2 -1 2 C-0.67 1.34 -0.34 0.68 0 0 Z " fill="#FFE0DF" transform="translate(220,123)"/>
<path d="M0 0 C1.13732426 3.40401948 0.83989957 5.77456664 0.0625 9.25 C-0.13214844 10.14203125 -0.32679688 11.0340625 -0.52734375 11.953125 C-0.68332031 12.62859375 -0.83929688 13.3040625 -1 14 C-1.33 14 -1.66 14 -2 14 C-2.3690205 4.58997722 -2.3690205 4.58997722 0 0 Z " fill="#FDC3C6" transform="translate(207,126)"/>
<path d="M0 0 C0.66 0.66 1.32 1.32 2 2 C1.625 4.125 1.625 4.125 1 6 C-0.98 6 -2.96 6 -5 6 C-3.35 4.02 -1.7 2.04 0 0 Z " fill="#D24455" transform="translate(80,143)"/>
<path d="M0 0 C2.64 0 5.28 0 8 0 C7.34 2.31 6.68 4.62 6 7 C5.67 7 5.34 7 5 7 C5 5.02 5 3.04 5 1 C3.35 1 1.7 1 0 1 C0 0.67 0 0.34 0 0 Z " fill="#CB4D57" transform="translate(158,134)"/>
<path d="M0 0 C-3.82517513 2.39073445 -7.59665524 2.55966552 -12 3 C-8.2391768 -0.7608232 -5.0273023 -0.25136512 0 0 Z " fill="#FEE5E2" transform="translate(139,115)"/>
<path d="M0 0 C1.32 0.33 2.64 0.66 4 1 C2.35 1.66 0.7 2.32 -1 3 C-1 4.65 -1 6.3 -1 8 C-1.66 6.68 -2.32 5.36 -3 4 C-2.01 2.68 -1.02 1.36 0 0 Z " fill="#D55160" transform="translate(66,124)"/>
<path d="M0 0 C0.66 0.33 1.32 0.66 2 1 C1.67 1.66 1.34 2.32 1 3 C0.77532169 4.53668865 0.59203195 6.07968054 0.4375 7.625 C0.35371094 8.44226563 0.26992187 9.25953125 0.18359375 10.1015625 C0.12300781 10.72804687 0.06242188 11.35453125 0 12 C-0.33 12 -0.66 12 -1 12 C-1.33 8.37 -1.66 4.74 -2 1 C-1.34 0.67 -0.68 0.34 0 0 Z " fill="#FAD6D9" transform="translate(218,126)"/>
<path d="M0 0 C0 3.59857954 -0.95830515 5.09451118 -3 8 C-3.66 8 -4.32 8 -5 8 C-3.8141763 4.62496331 -2.72426311 2.35277269 0 0 Z " fill="#FEE4E5" transform="translate(213,118)"/>
<path d="M0 0 C0.33 1.32 0.66 2.64 1 4 C0.34 4 -0.32 4 -1 4 C-1 6.64 -1 9.28 -1 12 C-1.33 12 -1.66 12 -2 12 C-2.05395478 10.37536158 -2.09277195 8.75021459 -2.125 7.125 C-2.14820313 6.22007813 -2.17140625 5.31515625 -2.1953125 4.3828125 C-2 2 -2 2 0 0 Z " fill="#D75F6B" transform="translate(179,118)"/>
<path d="M0 0 C0.66 0.33 1.32 0.66 2 1 C1.34 3.31 0.68 5.62 0 8 C-0.66 7.67 -1.32 7.34 -2 7 C-1.34 4.69 -0.68 2.38 0 0 Z " fill="#FCE9E1" transform="translate(188,108)"/>
</svg>
